# Blender v2.83.4 OBJ File: 'numbers.blend'
# www.blender.org
mtllib 8.mtl
o n8
v -0.437567 0.191366 -0.151999
v -0.427172 0.150064 -0.145093
v -0.442676 0.170125 -0.150012
v -0.430149 0.210248 -0.153334
v -0.369490 0.337696 -0.160764
v -0.378521 0.140623 -0.136589
v -0.321366 0.145343 -0.128647
v -0.263759 0.577252 -0.175970
v -0.290960 0.166585 -0.126848
v -0.239572 0.270432 -0.132608
v -0.136409 0.933046 -0.202997
v -0.143556 0.494057 -0.147204
v -0.010896 1.409208 -0.245890
v -0.025748 0.812088 -0.170768
v 0.088687 1.200334 -0.203931
v 0.007053 1.487093 -0.253292
v 0.038098 1.541967 -0.255753
v 0.103658 1.555538 -0.247700
v 0.149676 0.941897 -0.161328
v 0.173409 1.541967 -0.235503
v 0.216987 0.706471 -0.120760
v 0.194058 1.521758 -0.229795
v 0.205924 1.488274 -0.223682
v 0.220898 1.409208 -0.211199
v 0.327234 0.935996 -0.133990
v 0.284301 0.502317 -0.084241
v 0.345317 0.338286 -0.053863
v 0.440559 0.583153 -0.071326
v 0.393152 0.223819 -0.031877
v 0.420894 0.166585 -0.020311
v 0.449930 0.146523 -0.013368
v 0.537217 0.344187 -0.025907
v 0.519239 0.140623 -0.002230
v 0.583520 0.148883 0.006320
v 0.593554 0.212608 -0.000433
v 0.603337 0.170125 0.006534
v 0.600210 0.191366 0.003315
v 0.076829 1.578758 -0.068436
v 0.146580 1.565187 -0.056239
v 0.167229 1.544978 -0.050531
v 0.179096 1.511493 -0.044418
v 0.194069 1.432428 -0.031936
v 0.300405 0.959216 0.045274
v 0.413731 0.606373 0.107938
v 0.510388 0.367407 0.153357
v 0.566725 0.235828 0.178831
v 0.573381 0.214586 0.182579
v 0.576508 0.193345 0.185798
v 0.556693 0.172103 0.185584
v 0.492410 0.163843 0.177033
v 0.423101 0.169743 0.165896
v 0.394065 0.189805 0.158952
v 0.366324 0.247039 0.147387
v 0.318488 0.361506 0.125401
v 0.257472 0.525537 0.095022
v 0.190159 0.729691 0.058504
v 0.122848 0.965117 0.017936
v 0.061858 1.223554 -0.024667
v -0.052576 0.835308 0.008496
v -0.170385 0.517277 0.032059
v -0.266401 0.293652 0.046656
v -0.317788 0.189805 0.052416
v -0.348195 0.168563 0.050617
v -0.405350 0.163843 0.042675
v -0.454001 0.173284 0.034171
v -0.469505 0.193345 0.029252
v -0.464396 0.214586 0.027265
v -0.456978 0.233468 0.025930
v -0.396318 0.360916 0.018499
v -0.290587 0.600472 0.003293
v -0.163238 0.956266 -0.023733
v -0.037724 1.432428 -0.066626
v -0.019775 1.510313 -0.074028
v 0.011269 1.565187 -0.076490
v -0.437152 0.190531 -0.155532
v -0.429086 0.151360 -0.142262
v -0.445780 0.169777 -0.148115
v -0.428436 0.209776 -0.150140
v -0.368983 0.337168 -0.164345
v -0.376482 0.143633 -0.136962
v -0.322594 0.143206 -0.131345
v -0.264147 0.577254 -0.179604
v -0.293564 0.168826 -0.125602
v -0.241763 0.271274 -0.135409
v -0.139049 0.934088 -0.200694
v -0.146459 0.495343 -0.145396
v -0.009440 1.408500 -0.249166
v -0.026311 0.811898 -0.174374
v 0.085035 1.200423 -0.204060
v 0.006659 1.486509 -0.256878
v 0.039918 1.539345 -0.253974
v 0.103583 1.551945 -0.247035
v 0.148804 0.941032 -0.164770
v 0.174954 1.540984 -0.238665
v 0.217493 0.706106 -0.124361
v 0.194569 1.522246 -0.233381
v 0.206543 1.487498 -0.227199
v 0.222625 1.410053 -0.208091
v 0.324248 0.935587 -0.131924
v 0.285615 0.503414 -0.081012
v 0.348299 0.339095 -0.055815
v 0.441155 0.582525 -0.074877
v 0.395345 0.224275 -0.034765
v 0.421417 0.165828 -0.016774
v 0.446504 0.147791 -0.013489
v 0.534588 0.343602 -0.023437
v 0.520069 0.140999 -0.005770
v 0.582700 0.147784 0.002932
v 0.594302 0.212411 -0.004005
v 0.604711 0.171282 0.003351
v 0.600811 0.190615 -0.000211
v 0.076815 1.575113 -0.068177
v 0.148410 1.564359 -0.053186
v 0.169879 1.546169 -0.052749
v 0.181989 1.511871 -0.046619
v 0.196178 1.433322 -0.029087
v 0.297671 0.958846 0.047670
v 0.412760 0.605251 0.104597
v 0.507447 0.366566 0.155356
v 0.567703 0.236708 0.182241
v 0.576221 0.214844 0.180292
v 0.578967 0.192789 0.188444
v 0.560111 0.171987 0.184295
v 0.492369 0.167488 0.176772
v 0.420286 0.170940 0.167897
v 0.395556 0.188210 0.156021
v 0.365746 0.247594 0.150953
v 0.319600 0.362515 0.128733
v 0.256913 0.526066 0.098595
v 0.188028 0.729603 0.061473
v 0.123407 0.964564 0.014367
v 0.061188 1.223321 -0.028252
v -0.052080 0.834722 0.004923
v -0.173009 0.518512 0.034282
v -0.269113 0.295026 0.048683
v -0.318649 0.188872 0.048989
v -0.345021 0.167333 0.051949
v -0.405520 0.166819 0.044789
v -0.456347 0.174831 0.036508
v -0.472609 0.192997 0.031149
v -0.463981 0.213751 0.023731
v -0.456389 0.233125 0.022339
v -0.398088 0.361509 0.015357
v -0.291062 0.601091 0.006864
v -0.165114 0.956544 -0.026857
v -0.035199 1.432061 -0.064009
v -0.020423 1.510962 -0.077566
v 0.011047 1.563223 -0.079564
vn 0.1468 -0.1271 -0.9810
vn -0.0226 -0.7308 -0.6822
vn -0.1520 0.0147 -0.9883
vn -0.8268 0.3688 -0.4247
vn -0.0416 -0.8603 -0.5082
vn 0.5497 -0.7570 -0.3533
vn 0.6864 -0.5906 -0.4243
vn 0.9052 -0.4115 0.1065
vn 0.0351 -0.0988 -0.9945
vn 0.7755 -0.3467 -0.5276
vn -0.9476 0.2223 -0.2295
vn 0.0000 -0.0000 -1.0000
vn -0.4269 0.6322 -0.6466
vn 0.0739 0.8418 -0.5347
vn 0.2535 -0.1000 -0.9622
vn 0.8036 0.1136 -0.5842
vn -0.3413 -0.2924 -0.8933
vn -0.9007 -0.3912 -0.1888
vn 0.9239 0.3404 -0.1749
vn 0.7395 0.1804 -0.6485
vn -0.0519 0.9507 0.3058
vn 0.2061 0.9739 -0.0953
vn 0.9328 0.3478 0.0945
vn 0.9336 0.2948 0.2034
vn 0.0262 0.1830 0.9828
vn -1.0000 -0.0000 0.0001
vn 0.9176 0.3877 0.0871
vn 0.9101 0.4059 0.0836
vn 0.9442 0.3136 0.1007
vn 0.7163 -0.6703 0.1940
vn -0.0649 -0.9908 0.1186
vn -0.0425 -0.5394 0.8410
vn -0.0568 -0.8566 0.5128
vn -0.1023 -0.9884 0.1127
vn -0.8912 -0.4472 -0.0755
vn -0.9134 -0.3981 -0.0851
vn -0.9238 -0.3721 -0.0901
vn -0.9276 -0.3621 -0.0919
vn -0.9398 -0.3274 -0.0982
vn -0.3215 0.0797 0.9435
vn -0.9628 -0.2457 -0.1123
vn -0.9726 -0.2319 -0.0145
vn 0.3009 -0.0072 0.9536
vn 0.9482 -0.2644 0.1761
vn 0.3947 -0.0379 0.9180
vn 0.9265 -0.3298 0.1814
vn 0.9154 -0.3582 0.1834
vn 0.8962 -0.4025 0.1863
vn 0.8582 -0.4768 0.1902
vn 0.0625 -0.9885 0.1374
vn -0.0722 -0.9904 0.1175
vn -0.2057 -0.9740 0.0954
vn -0.5494 0.2718 0.7901
vn -0.9194 0.3483 -0.1827
vn -0.6112 0.2922 0.7356
vn -0.8912 0.4133 -0.1869
vn -0.9303 0.3193 -0.1806
vn -0.9604 0.2192 -0.1721
vn -0.9636 0.2058 -0.1709
vn -0.8581 0.4769 -0.1902
vn -0.3118 0.6794 0.6643
vn -0.1468 0.1271 0.9810
vn -1.0000 -0.0001 0.0000
vn -0.1469 0.1271 0.9810
vn -0.5857 0.0365 0.8097
vn -0.5723 -0.0832 0.8158
vn -0.7087 0.0478 0.7038
vn -0.1815 0.6393 0.7472
vn -0.7705 -0.2136 0.6006
vn -0.1769 0.4974 0.8493
vn -0.5907 -0.0467 0.8055
vn -0.8787 -0.2057 0.4307
vn -0.5211 -0.2649 0.8114
vn 0.9139 0.3071 0.2657
vn -0.4893 -0.2653 0.8308
vn 0.3189 0.2488 0.9145
vn 0.4037 -0.0350 0.9142
vn 0.2036 0.0460 0.9780
vn 0.9301 -0.2740 0.2446
vn -0.0007 0.0760 0.9971
vn 0.8623 -0.3578 0.3583
vn 0.3182 -0.0805 0.9446
vn -0.1887 0.7807 0.5957
vn -0.1520 0.7427 0.6521
vn -0.8362 -0.5457 -0.0545
vn -0.6977 -0.7163 -0.0116
vn -0.9328 -0.3478 -0.0945
vn -0.9500 -0.2156 -0.2257
vn -0.9719 -0.2029 -0.1192
vn -0.5769 -0.2445 -0.7794
vn -0.9691 -0.2171 -0.1169
vn 0.0301 -0.1544 -0.9876
vn -0.9421 -0.3203 -0.0995
vn -0.9350 -0.3416 -0.0957
vn -0.9442 -0.3136 -0.1007
vn -0.9786 -0.1631 -0.1253
vn -0.6605 0.1472 -0.7363
vn -0.5016 0.4753 -0.7228
vn -0.1073 0.9838 -0.1435
vn 0.5717 0.8202 -0.0207
vn 0.5451 0.0673 -0.8357
vn 0.9134 0.3981 0.0851
vn 0.4807 0.0326 -0.8763
vn 0.5553 0.0345 -0.8309
vn 0.9398 0.3274 0.0982
vn 0.3668 -0.0453 -0.9292
vn 0.9513 0.2900 0.1048
vn 0.0000 0.0001 -1.0000
vn 0.9628 0.2457 0.1123
vn -0.9265 0.3298 -0.1814
vn -0.4837 0.8558 -0.1832
vn -0.5550 0.8103 -0.1880
vn 0.9680 0.2225 0.1160
vn 0.8494 0.0952 -0.5191
vn 0.7862 0.6168 0.0378
vn 0.7979 0.5654 -0.2090
vn 0.9614 -0.2151 0.1717
vn 0.9620 -0.2430 -0.1245
vn 0.8912 -0.4133 0.1869
vn 0.9033 -0.3869 0.1853
vn 0.9462 -0.2711 0.1767
vn 0.9560 -0.2364 0.1737
vn 0.8863 -0.4234 0.1875
vn 0.8581 -0.4769 0.1902
vn 0.0283 0.3260 0.9450
vn 0.0547 0.7700 0.6357
vn 0.8341 -0.3417 0.4330
vn 0.2390 -0.0033 0.9710
vn 0.0507 0.8481 0.5274
vn -0.6622 0.6796 0.3155
vn -0.7548 0.5402 0.3722
vn -0.3149 0.1467 0.9377
vn -0.9071 0.4087 -0.1010
vn -0.7900 0.3417 0.5090
vn 0.0185 0.0954 0.9953
vn 0.9509 -0.2173 0.2204
vn -0.1839 -0.0499 0.9817
vn -0.0549 -0.8427 0.5356
vn 0.4137 -0.6474 0.6400
vn -0.0966 0.1258 0.9873
vn -0.2012 0.1171 0.9725
vn -0.5722 0.0772 0.8164
vn -0.5082 0.1054 0.8548
vn -0.8127 -0.1140 0.5715
vn 0.3954 0.2847 0.8733
vn 0.9004 0.3888 0.1953
vn -0.0747 0.1233 0.9896
vn -0.0294 0.1394 0.9898
vn -0.0816 0.1384 0.9870
vn -0.9286 -0.3332 0.1634
vn -0.7596 -0.1753 0.6263
vn 0.0712 -0.9477 -0.3112
vn -0.1641 -0.9812 0.1020
vn -0.1681 -0.9807 0.0995
vn -0.9377 -0.3377 -0.0819
vn -0.9356 -0.2901 -0.2011
vn -0.0861 -0.1856 -0.9788
vn 0.9564 0.0683 0.2839
vn -0.9180 -0.3847 -0.0965
vn -0.8977 -0.4332 -0.0806
vn -0.9500 -0.2992 -0.0893
vn -0.7164 0.6743 -0.1792
vn 0.0755 0.9884 -0.1320
vn 0.0602 0.8456 -0.5305
vn 0.0526 0.5740 -0.8172
vn 0.0945 0.9876 -0.1250
vn 0.0619 0.9911 -0.1175
vn 0.8912 0.4469 0.0780
vn 0.8887 0.4525 0.0744
vn 0.8970 0.4336 0.0863
vn 0.8991 0.4286 0.0895
vn 0.9153 0.3920 0.0926
vn 0.9212 0.3772 0.0954
vn 0.9238 0.3700 0.0988
vn 0.9355 0.3370 0.1057
vn 0.3471 -0.0708 -0.9352
vn 0.9721 0.2345 0.0043
vn 0.9630 0.2487 0.1039
vn 0.4526 0.8820 -0.1313
vn -0.9507 0.2595 -0.1697
vn -0.3637 0.0151 -0.9314
vn -0.4165 0.0439 -0.9081
vn -0.9250 0.3346 -0.1798
vn -0.9148 0.3608 -0.1817
vn -0.8994 0.3963 -0.1846
vn -0.8669 0.4634 -0.1837
vn 0.0890 0.9895 -0.1141
vn 0.0064 0.9921 -0.1255
vn 0.1712 0.9799 -0.1026
vn 0.6834 -0.3238 -0.6543
vn 0.7320 -0.3297 -0.5962
vn 0.8746 -0.4415 0.2003
vn 0.8697 -0.4504 0.2019
vn 0.8964 -0.3962 0.1988
vn 0.9332 -0.3141 0.1748
vn 0.9676 -0.1957 0.1595
vn 0.9754 -0.1560 0.1555
vn 0.8225 -0.5292 0.2086
vn 0.3157 -0.6887 -0.6527
vn 0.3801 -0.2182 -0.8989
vn 0.3739 -0.2188 -0.9013
vn 0.2062 -0.1265 -0.9703
vn 0.1697 -0.1227 -0.9778
vn 0.0509 -0.1095 -0.9927
vn -0.0303 -0.0996 -0.9946
vn 0.2318 -0.1386 -0.9628
vn 0.1247 -0.1208 -0.9848
vn 0.1285 -0.1252 -0.9838
vn 0.1475 -0.1263 -0.9810
vn -0.0626 -0.1387 -0.9884
vn 0.2240 -0.1225 -0.9669
vn 0.2654 -0.1188 -0.9568
vn -0.0729 -0.1398 -0.9875
vn 0.1156 -0.1351 -0.9841
vn 0.0857 -0.1311 -0.9877
vn 0.3547 -0.1288 -0.9260
vn 0.9853 0.1629 -0.0508
vn -0.8310 -0.2809 -0.4801
vn 0.3898 -0.0924 -0.9163
vn 0.7217 -0.0182 -0.6920
vn 0.5146 0.0969 -0.8520
vn 0.1634 -0.6403 -0.7506
vn 0.7499 0.2490 -0.6130
vn 0.1461 -0.4693 -0.8708
vn 0.0954 -0.0933 -0.9911
vn 0.3195 -0.1457 -0.9363
vn 0.2889 -0.1429 -0.9466
vn 0.5729 0.0540 -0.8179
vn 0.1283 -0.1260 -0.9837
vn 0.8760 0.2208 -0.4289
vn 0.2183 -0.1334 -0.9667
vn 0.1375 -0.1273 -0.9823
vn -0.9126 -0.3057 -0.2715
vn 0.5148 0.2736 -0.8125
vn 0.4623 0.2759 -0.8427
vn -0.3254 -0.2514 -0.9115
vn 0.0965 -0.1258 -0.9874
vn 0.2548 -0.1076 -0.9610
vn -0.3423 0.0156 0.9395
vn -0.3537 0.0439 -0.9343
vn -0.1787 -0.0596 -0.9821
vn 0.1026 -0.1266 -0.9866
vn 0.0951 -0.1265 -0.9874
vn -0.9293 0.2779 -0.2434
vn 0.0923 -0.1357 -0.9864
vn 0.0488 -0.0784 -0.9957
vn 0.0831 -0.1365 -0.9871
vn -0.8663 0.3560 -0.3505
vn 0.1142 -0.7967 -0.5935
vn -0.3151 0.0787 -0.9458
vn 0.0637 -0.7421 -0.6673
vn 0.6809 -0.1053 -0.7247
vn 0.8107 0.5846 0.0334
vn 0.6511 0.7589 -0.0106
vn 0.9351 0.3448 0.0821
vn 0.9520 0.2196 0.2133
vn 0.4469 0.2802 0.8496
vn 0.9690 0.2207 0.1111
vn 0.9672 0.2273 0.1134
vn -0.0279 0.1540 0.9877
vn 0.9386 0.3281 0.1070
vn 0.9222 0.3778 0.0824
vn 0.9309 0.3549 0.0866
vn 0.9802 0.1633 0.1116
vn 0.5719 -0.2008 0.7954
vn 0.4501 -0.5498 0.7037
vn 0.0870 -0.9860 0.1424
vn -0.5786 -0.8154 0.0190
vn -0.5846 -0.8111 0.0189
vn -0.5794 -0.8148 0.0190
vn -0.5853 -0.8106 0.0189
vn -0.4170 -0.0727 0.9060
vn -0.4651 -0.0156 0.8851
vn -0.9169 -0.3870 -0.0975
vn -0.5499 -0.0372 0.8344
vn -0.3700 0.0445 0.9280
vn -0.9357 -0.3362 -0.1071
vn -0.9512 -0.2905 -0.1039
vn -0.9517 -0.2848 -0.1149
vn -0.1017 0.9502 -0.2946
vn -0.9629 -0.2515 -0.0978
vn 0.9248 -0.3373 0.1759
vn 0.5468 -0.8188 0.1747
vn 0.6344 -0.7525 0.1767
vn -0.9797 -0.1558 -0.1264
vn -0.7375 -0.6750 -0.0230
vn -0.8108 0.0043 0.5853
vn -0.7523 -0.5830 0.3067
vn -0.9294 0.3218 -0.1808
vn -0.9038 0.4142 0.1075
vn -0.8963 0.3962 -0.1989
vn -0.9025 0.3879 -0.1872
vn -0.8974 0.3939 -0.1987
vn -0.9448 0.2756 -0.1773
vn -0.9532 0.2468 -0.1748
vn -0.8777 0.4389 -0.1924
vn -0.8434 0.5004 -0.1956
vn -0.2871 0.0640 0.9558
vn 0.7800 0.6246 0.0395
vn -0.1160 0.1149 0.9866
vn -0.9065 -0.3285 -0.2654
vn -0.1310 0.1214 0.9839
vn -0.1720 0.1392 0.9752
vn 0.0692 0.1193 0.9904
vn -0.0668 0.1369 0.9883
vn -0.1370 0.1285 0.9822
vn -0.1866 0.1176 0.9754
vn 0.0008 0.1692 0.9856
vn -0.1777 0.1392 0.9742
vn -0.1316 0.1329 0.9824
vn -0.2242 0.1177 0.9674
vn -0.1039 0.1273 0.9864
vn -0.2395 0.1146 0.9641
vn -0.1174 0.1528 0.9813
vn -0.1258 0.1530 0.9802
vn -0.1261 0.1530 0.9802
vn -0.1353 0.1531 0.9789
usemtl Default_OBJ.001
s 1
f 1//1 2//1 3//1
f 2//2 4//3 5//4
f 2//2 5//4 6//5
f 7//6 8//1 9//7
f 10//8 11//9 12//10
f 12//10 11//9 13//11
f 15//12 17//13 18//14
f 15//12 18//14 19//1
f 21//1 23//1 24//15
f 21//1 24//15 25//16
f 26//17 25//1 27//18
f 30//1 28//19 31//1
f 31//1 28//19 32//20
f 38//21 20//22 18//14
f 20//22 38//21 39//22
f 22//23 41//23 23//23
f 24//15 43//24 25//16
f 44//25 25//16 43//24
f 28//19 45//26 32//20
f 45//26 28//19 44//27
f 46//28 32//20 45//26
f 35//29 47//29 37//29
f 36//30 49//30 34//30
f 33//31 49//32 50//33
f 50//33 31//34 33//31
f 31//34 50//33 51//34
f 53//35 30//35 52//35
f 30//35 53//35 29//35
f 29//36 54//37 27//18
f 55//38 27//18 54//37
f 27//18 55//38 26//17
f 26//39 56//39 21//39
f 58//40 19//41 57//42
f 15//12 59//43 14//44
f 59//43 15//12 58//45
f 14//46 60//47 12//10
f 12//10 61//48 10//8
f 61//48 12//10 60//47
f 10//8 62//49 9//7
f 62//49 10//8 61//48
f 62//49 7//6 9//7
f 6//5 63//50 64//51
f 64//51 2//2 6//5
f 2//2 64//51 65//52
f 68//53 1//54 67//55
f 1//54 68//53 4//54
f 4//3 69//56 5//4
f 71//57 8//57 70//57
f 11//9 72//58 13//11
f 73//59 13//11 72//58
f 16//60 74//61 17//13
f 74//61 18//14 17//13
f 18//14 74//61 38//21
f 67//55 65//62 68//53
f 68//53 65//62 69//62
f 69//62 63//62 70//62
f 70//62 63//62 62//62
f 71//62 60//62 72//62
f 72//62 60//62 59//43
f 72//62 59//43 58//45
f 73//62 58//40 74//61
f 74//61 58//40 38//21
f 38//21 58//40 57//42
f 39//62 57//62 56//62
f 39//62 56//62 40//62
f 40//62 56//62 41//62
f 43//24 54//62 44//25
f 44//62 52//62 51//62
f 45//63 50//33 49//32
f 46//64 48//64 47//64
f 37//65 35//66 36//67
f 36//67 35//66 34//68
f 35//66 32//69 34//68
f 34//68 32//69 33//70
f 33//70 32//69 31//62
f 30//62 28//71 29//62
f 29//62 28//71 27//62
f 28//71 25//72 27//62
f 26//62 25//62 21//62
f 23//62 22//73 21//74
f 22//73 20//75 21//74
f 21//74 20//75 19//76
f 20//75 18//62 19//76
f 17//62 16//77 15//12
f 16//77 13//78 15//12
f 15//12 13//78 14//62
f 14//62 13//78 12//62
f 11//79 8//80 10//62
f 10//62 8//80 9//62
f 8//81 5//82 7//83
f 7//83 5//82 6//84
f 4//62 1//62 2//62
f 40//85 39//86 22//73
f 20//75 22//73 39//86
f 40//85 22//73 41//87
f 41//88 23//89 42//90
f 24//91 42//90 23//89
f 42//90 24//91 43//92
f 28//71 44//93 25//72
f 35//66 46//94 32//69
f 46//94 35//66 47//95
f 47//96 37//65 48//97
f 36//67 48//97 37//65
f 48//97 36//67 49//98
f 34//68 33//70 49//99
f 52//100 51//100 30//100
f 31//100 30//100 51//100
f 53//101 29//102 54//103
f 55//104 26//105 56//106
f 19//76 57//107 21//74
f 56//107 21//74 57//107
f 15//108 58//109 19//109
f 59//110 14//110 60//110
f 63//111 62//112 7//83
f 7//83 6//84 63//111
f 3//113 66//114 2//115
f 65//116 2//115 66//114
f 1//117 67//118 3//113
f 66//114 3//113 67//118
f 68//119 4//119 69//119
f 8//81 70//120 5//82
f 69//120 5//82 70//120
f 11//79 71//121 8//80
f 71//121 11//79 72//122
f 16//77 73//123 13//78
f 73//123 16//77 74//124
f 48//97 49//98 46//1
f 46//1 49//98 45//26
f 50//1 51//1 45//26
f 45//26 51//1 44//1
f 52//1 53//101 44//1
f 53//101 54//103 44//1
f 54//1 55//104 43//92
f 55//104 56//106 43//92
f 43//92 56//106 42//90
f 42//90 56//106 41//88
f 39//1 57//1 38//1
f 73//1 58//1 72//1
f 60//1 61//1 71//1
f 71//1 61//1 70//1
f 61//1 62//1 70//1
f 63//1 64//1 69//1
f 64//1 65//1 69//1
f 66//114 67//118 65//116
f 75//125 77//125 76//125
f 76//126 79//127 78//128
f 76//126 80//129 79//127
f 81//130 83//131 82//132
f 84//133 86//134 85//135
f 86//134 87//136 85//135
f 89//137 92//138 91//139
f 89//137 93//140 92//138
f 95//141 98//142 97//143
f 95//141 99//144 98//142
f 100//145 101//146 99//147
f 104//148 105//149 102//150
f 105//149 106//151 102//150
f 112//152 92//138 94//153
f 94//153 113//154 112//152
f 96//155 97//155 115//155
f 98//142 99//144 117//156
f 118//157 117//156 99//144
f 102//150 106//151 119//158
f 119//158 118//159 102//150
f 120//160 119//158 106//151
f 109//161 111//161 121//161
f 110//162 108//162 123//162
f 107//163 124//164 123//165
f 124//164 107//163 105//166
f 105//166 125//167 124//164
f 127//168 126//169 104//170
f 104//170 103//171 127//168
f 103//172 101//146 128//173
f 129//174 128//173 101//146
f 101//146 100//145 129//174
f 100//175 95//175 130//175
f 132//176 131//177 93//178
f 89//179 88//180 133//181
f 133//181 132//182 89//179
f 88//183 86//134 134//184
f 86//134 84//133 135//185
f 135//185 134//184 86//134
f 84//133 83//131 136//186
f 136//186 135//185 84//133
f 136//186 83//131 81//130
f 80//129 138//187 137//188
f 138//187 80//129 76//126
f 76//126 139//189 138//187
f 142//190 141//191 75//192
f 75//192 78//193 142//190
f 78//128 79//127 143//194
f 145//195 144//195 82//195
f 85//135 87//136 146//196
f 147//197 146//196 87//136
f 90//198 91//139 148//199
f 148//199 91//139 92//138
f 92//138 112//152 148//199
f 141//191 142//190 139//200
f 142//190 143//201 139//200
f 143//202 144//203 137//204
f 144//203 136//205 137//204
f 145//206 146//207 134//208
f 146//207 133//181 134//208
f 146//207 132//182 133//181
f 147//209 148//199 132//176
f 148//199 112//152 132//176
f 112//152 131//177 132//176
f 113//210 130//211 131//212
f 113//210 114//213 130//211
f 114//213 115//214 130//211
f 117//156 118//157 128//215
f 118//216 125//216 126//216
f 119//217 123//165 124//164
f 120//218 121//218 122//218
f 111//219 110//220 109//221
f 110//220 108//222 109//221
f 109//221 108//222 106//223
f 108//222 107//224 106//223
f 107//224 105//225 106//223
f 104//226 103//227 102//228
f 103//227 101//229 102//228
f 102//228 101//229 99//230
f 100//231 95//231 99//231
f 97//232 95//233 96//234
f 96//234 95//233 94//235
f 95//233 93//236 94//235
f 94//235 93//236 92//237
f 91//238 89//239 90//240
f 90//240 89//239 87//241
f 89//239 88//242 87//241
f 88//242 86//243 87//241
f 85//244 84//245 82//246
f 84//245 83//247 82//246
f 82//248 81//249 79//250
f 81//249 80//251 79//250
f 78//252 76//252 75//252
f 114//253 96//234 113//254
f 94//235 113//254 96//234
f 114//253 115//255 96//234
f 115//256 116//257 97//258
f 98//259 97//258 116//257
f 116//257 117//260 98//259
f 102//228 99//230 118//261
f 109//221 106//223 120//262
f 120//262 121//263 109//221
f 121//264 122//265 111//219
f 110//220 111//219 122//265
f 122//265 123//266 110//220
f 108//222 123//267 107//224
f 126//268 104//269 125//270
f 105//271 125//270 104//269
f 127//272 128//273 103//274
f 129//275 130//276 100//277
f 93//236 95//233 131//278
f 130//279 131//278 95//233
f 89//280 93//281 132//281
f 133//282 134//282 88//282
f 137//283 81//249 136//284
f 81//249 137//283 80//251
f 77//285 76//286 140//287
f 139//288 140//287 76//286
f 75//289 77//285 141//290
f 140//287 141//290 77//285
f 142//291 143//291 78//291
f 82//248 79//250 144//292
f 143//293 144//292 79//250
f 85//244 82//246 145//294
f 145//294 146//295 85//244
f 90//240 87//241 147//296
f 147//296 148//297 90//240
f 122//265 120//298 123//266
f 120//298 119//299 123//266
f 124//300 119//301 125//302
f 119//301 118//303 125//302
f 126//304 118//305 127//272
f 127//272 118//305 128//273
f 128//306 117//260 129//275
f 129//275 117//260 130//276
f 117//260 116//257 130//276
f 116//257 115//256 130//276
f 113//307 112//307 131//307
f 147//308 146//308 132//308
f 134//309 145//310 135//311
f 145//310 144//312 135//311
f 135//311 144//312 136//313
f 137//314 143//315 138//316
f 138//316 143//315 139//317
f 140//287 139//288 141//290
