# Blender v2.83.4 OBJ File: 'numbers.blend'
# www.blender.org
mtllib 9.mtl
o n9
v -0.216238 1.683394 -0.218247
v -0.278370 1.346650 -0.183927
v -0.274506 1.617579 -0.218443
v -0.260424 1.419494 -0.190677
v -0.214468 1.491060 -0.193069
v -0.151227 1.735151 -0.215222
v -0.148443 1.546012 -0.190306
v -0.083057 1.768698 -0.209365
v -0.070303 1.567738 -0.181426
v -0.015311 1.779880 -0.200674
v -0.023446 1.560869 -0.173523
v 0.017735 1.540262 -0.164691
v 0.057435 1.769177 -0.188401
v 0.083862 1.466140 -0.145193
v 0.122766 1.737068 -0.174464
v 0.128925 1.356235 -0.124213
v 0.180083 1.685470 -0.159203
v 0.155038 1.221410 -0.102841
v -0.391992 1.360388 -0.202712
v -0.383104 1.131952 -0.171792
v -0.402196 1.267416 -0.192196
v -0.364916 1.452721 -0.210619
v -0.323806 1.033549 -0.150172
v -0.230005 0.974124 -0.128436
v -0.263161 1.275084 -0.172381
v -0.219715 1.214381 -0.158016
v -0.108693 0.954315 -0.107715
v -0.154893 1.172208 -0.142852
v -0.075558 1.156233 -0.128910
v 0.044835 0.970290 -0.086807
v 0.045773 1.170930 -0.112655
v 0.171572 1.018213 -0.074047
v 0.228785 1.616300 -0.142954
v 0.200513 0.730032 -0.032388
v 0.242910 0.479551 0.006402
v 0.299765 1.428440 -0.107998
v 0.282792 0.298081 0.035877
v 0.332702 1.183071 -0.071286
v 0.306737 0.216930 0.049972
v 0.330757 0.190092 0.057043
v 0.364708 0.821407 -0.019650
v 0.386335 0.181147 0.066519
v 0.411377 0.527475 0.025407
v 0.452199 0.193926 0.074721
v 0.452723 0.322362 0.058163
v 0.470006 0.225876 0.073248
v 0.142518 1.043359 0.120086
v 0.015781 0.995436 0.107326
v -0.137747 0.979461 0.086419
v -0.259059 0.999270 0.065697
v -0.352860 1.058695 0.043961
v -0.412156 1.157098 0.022341
v -0.431250 1.292562 0.001937
v -0.421046 1.385534 -0.008578
v -0.393970 1.477867 -0.016486
v -0.303560 1.642724 -0.024309
v -0.245292 1.708539 -0.024114
v -0.180281 1.760297 -0.021088
v -0.112111 1.793844 -0.015231
v -0.044366 1.805026 -0.006541
v 0.028381 1.794323 0.005732
v 0.093712 1.762214 0.019669
v 0.151029 1.710616 0.034931
v 0.199731 1.641446 0.051179
v 0.270710 1.453586 0.086135
v 0.303648 1.208217 0.122847
v 0.335654 0.846553 0.174483
v 0.382323 0.552621 0.219541
v 0.423669 0.347508 0.252297
v 0.440952 0.251022 0.267381
v 0.423145 0.219072 0.268854
v 0.357281 0.206293 0.260652
v 0.301703 0.215239 0.251176
v 0.277683 0.242076 0.244105
v 0.253738 0.323226 0.230010
v 0.213855 0.504697 0.200535
v 0.171459 0.755179 0.161745
v -0.307423 1.371796 0.010206
v -0.292215 1.300230 0.021752
v -0.248769 1.239527 0.036117
v -0.183947 1.197354 0.051281
v -0.104610 1.181380 0.065223
v 0.016719 1.196076 0.081478
v 0.125984 1.246556 0.091292
v -0.289478 1.444640 0.003456
v -0.243523 1.516206 0.001064
v -0.177495 1.571158 0.003827
v -0.099357 1.592884 0.012708
v -0.052501 1.586015 0.020610
v -0.011319 1.565408 0.029442
v 0.054809 1.491286 0.048940
v 0.099871 1.381381 0.069920
v -0.218823 1.686080 -0.216918
v -0.278951 1.347153 -0.180045
v -0.272837 1.616755 -0.221935
v -0.261005 1.419997 -0.186794
v -0.215050 1.491563 -0.189187
v -0.152986 1.737878 -0.212956
v -0.147862 1.545510 -0.194188
v -0.085314 1.767488 -0.212383
v -0.070884 1.568241 -0.177543
v -0.015440 1.776081 -0.199571
v -0.024028 1.561372 -0.169641
v 0.017154 1.540764 -0.160808
v 0.056140 1.766745 -0.185559
v 0.083281 1.466643 -0.141311
v 0.120806 1.735413 -0.171450
v 0.128344 1.356738 -0.120331
v 0.177691 1.684229 -0.156304
v 0.155619 1.220907 -0.106724
v -0.392490 1.361290 -0.198890
v -0.380550 1.132643 -0.174736
v -0.398931 1.267172 -0.194420
v -0.364551 1.451717 -0.214431
v -0.322673 1.035563 -0.146959
v -0.227662 0.976052 -0.130977
v -0.262580 1.274581 -0.176264
v -0.219134 1.213878 -0.161899
v -0.109459 0.950444 -0.108014
v -0.154312 1.171705 -0.146735
v -0.074977 1.155731 -0.132792
v 0.044343 0.972961 -0.083928
v 0.045192 1.171433 -0.108773
v 0.170247 1.017417 -0.070403
v 0.225820 1.615229 -0.140561
v 0.198009 0.729252 -0.035352
v 0.241888 0.478705 0.002673
v 0.296560 1.428013 -0.105715
v 0.281511 0.297080 0.032268
v 0.329982 1.183164 -0.068413
v 0.305596 0.218466 0.053436
v 0.332996 0.193011 0.055581
v 0.366487 0.822093 -0.016182
v 0.387659 0.180666 0.062820
v 0.409007 0.526573 0.022369
v 0.454379 0.191052 0.073092
v 0.449865 0.322239 0.060899
v 0.469809 0.224107 0.069713
v 0.138953 1.043937 0.121705
v 0.014252 0.999068 0.106968
v -0.137915 0.978085 0.090126
v -0.259610 1.001196 0.069111
v -0.355490 1.056735 0.046177
v -0.414990 1.156872 0.025095
v -0.430273 1.292777 0.005766
v -0.420388 1.385436 -0.012480
v -0.393592 1.476892 -0.020303
v -0.301157 1.641098 -0.021618
v -0.243157 1.706352 -0.026627
v -0.179315 1.760044 -0.024918
v -0.112336 1.793097 -0.019112
v -0.044078 1.801472 -0.008259
v 0.029181 1.790523 0.004969
v 0.094707 1.764866 0.022433
v 0.149877 1.711767 0.038538
v 0.197480 1.639683 0.048442
v 0.268126 1.452469 0.083354
v 0.300469 1.208208 0.125205
v 0.337329 0.847314 0.177987
v 0.379800 0.552618 0.222590
v 0.423097 0.347963 0.256186
v 0.440414 0.251830 0.263544
v 0.420987 0.217250 0.271626
v 0.356946 0.204025 0.263879
v 0.302483 0.214985 0.255048
v 0.276658 0.243393 0.247694
v 0.253192 0.323593 0.233913
v 0.215206 0.505492 0.204170
v 0.168970 0.755353 0.164818
v -0.306842 1.371293 0.006323
v -0.292796 1.300733 0.025634
v -0.249350 1.240030 0.039999
v -0.184528 1.197857 0.055163
v -0.104029 1.180877 0.061341
v 0.016138 1.196579 0.085360
v 0.125403 1.247058 0.095174
v -0.290059 1.445143 0.007339
v -0.242942 1.515703 -0.002819
v -0.176914 1.570656 -0.000055
v -0.099938 1.593387 0.016590
v -0.053082 1.586518 0.024493
v -0.011900 1.565910 0.033325
v 0.055390 1.490783 0.045057
v 0.100452 1.380878 0.066037
vn 0.9649 -0.2252 0.1349
vn 0.1468 -0.1271 -0.9810
vn 0.7130 -0.3466 -0.6094
vn 0.5316 -0.3669 -0.7634
vn 0.3288 -0.3637 0.8716
vn 0.0521 -0.7928 -0.6072
vn 0.0779 0.8144 -0.5750
vn -0.0992 -0.7273 -0.6792
vn -0.2920 -0.6188 -0.7292
vn 0.3271 0.6144 -0.7180
vn -0.4500 -0.4529 -0.7697
vn 0.5064 0.4736 -0.7206
vn -0.5735 -0.2593 -0.7771
vn 0.4420 0.2349 -0.8657
vn 0.4382 0.0417 -0.8979
vn -0.1142 -0.4953 -0.8612
vn -0.3611 -0.8725 -0.3291
vn 0.1683 -0.6616 -0.7307
vn 0.2034 -0.9297 -0.3070
vn 0.1231 0.5549 -0.8227
vn 0.8088 0.4948 -0.3179
vn 0.7454 0.2673 -0.6107
vn 0.8055 0.1056 -0.5831
vn 0.7652 -0.0061 -0.6437
vn -0.2845 -0.4741 -0.8332
vn -0.5998 -0.6571 -0.4566
vn 0.9768 0.1910 0.0965
vn 0.5866 -0.0111 -0.8098
vn 0.0259 -0.3207 0.9468
vn 0.1949 -0.8507 0.4882
vn -0.1770 -0.9791 0.1003
vn -0.2711 -0.9589 0.0836
vn -0.8492 -0.5247 -0.0591
vn -0.9795 -0.1571 -0.1262
vn -0.9884 0.0210 -0.1506
vn -0.9891 -0.0338 -0.1436
vn -0.9832 0.0899 -0.1588
vn -0.8177 0.5745 -0.0378
vn -0.8647 0.4652 -0.1897
vn -0.5800 0.3529 0.7342
vn -0.8408 0.5063 -0.1914
vn -0.7342 0.6506 -0.1942
vn -0.6060 0.7723 -0.1907
vn -0.3982 0.4536 0.7973
vn -0.4162 0.4775 0.7738
vn -0.2046 0.7665 0.6088
vn -0.1425 0.9786 -0.1481
vn -0.0831 0.8583 0.5064
vn 0.0751 0.8334 0.5476
vn 0.6685 0.7437 0.0037
vn 0.5551 0.4413 0.7050
vn 0.7008 0.5882 0.4036
vn 0.6265 0.2797 0.7275
vn 0.9831 0.1285 0.1305
vn 0.9853 0.1063 0.1337
vn 0.9769 0.1741 0.1237
vn 0.9727 0.1987 0.1198
vn 0.9697 0.2142 0.1174
vn 0.9737 0.1933 0.1207
vn 0.4615 -0.1083 0.8805
vn 0.9833 0.1267 0.1307
vn 0.7578 -0.3985 0.5167
vn -0.1748 -0.9794 0.1007
vn -1.0000 -0.0000 0.0000
vn -0.7417 -0.6703 -0.0242
vn -0.9662 -0.2310 -0.1147
vn -0.9753 -0.1840 -0.1221
vn -0.1468 0.1271 0.9810
vn -0.5296 0.2653 -0.8057
vn -0.7467 0.4011 -0.5306
vn -0.8301 0.4579 -0.3180
vn -0.0439 -0.1224 -0.9915
vn 0.2021 -0.3980 0.8948
vn 0.2029 -0.2908 0.9350
vn -0.5980 -0.0932 0.7961
vn -0.3862 -0.0433 0.9214
vn -0.0199 0.0172 0.9997
vn -0.5522 0.3428 0.7599
vn -0.5444 0.7155 0.4379
vn -0.2113 0.5883 0.7805
vn 0.9020 0.3171 0.2932
vn 0.3364 0.2566 0.9061
vn 0.8889 0.2570 0.3792
vn 0.3357 0.2224 0.9153
vn 0.9154 0.2083 0.3445
vn 0.6150 0.1971 0.7635
vn 1.0000 -0.0000 0.0001
vn -0.0914 0.0534 0.9944
vn -0.0284 0.4114 0.9110
vn 0.1455 0.7025 0.6966
vn -0.0022 0.8828 0.4698
vn 0.3458 0.5738 0.7424
vn -0.0457 0.5749 0.8170
vn 0.0867 -0.9914 0.0976
vn 0.0966 -0.0846 -0.9917
vn -0.1281 -0.5015 0.8556
vn -0.0575 -0.9213 0.3845
vn 0.1830 -0.1649 0.9692
vn 0.6371 -0.6814 0.3603
vn 0.5282 0.8485 -0.0309
vn -0.3335 0.9273 -0.1700
vn 0.5347 0.1112 -0.8377
vn 0.0650 0.7736 -0.6303
vn 0.0593 0.5338 -0.8435
vn 0.6486 0.4687 -0.5997
vn 0.3301 0.1824 -0.9261
vn 0.7150 0.6990 0.0165
vn 0.4563 0.0803 -0.8862
vn 0.9869 0.1486 0.0630
vn 0.9795 0.1571 0.1262
vn 0.4482 -0.0711 -0.8911
vn 0.9486 -0.2631 0.1760
vn 0.6743 -0.7127 0.1932
vn 0.6060 -0.7723 0.1907
vn 0.4221 -0.8888 0.1783
vn -0.1730 -0.6667 -0.7249
vn -0.2033 -0.7075 -0.6768
vn -0.4489 -0.8923 0.0484
vn -0.2747 -0.5404 -0.7953
vn -0.4698 -0.6862 -0.5554
vn -0.6685 -0.7437 -0.0037
vn -0.9826 -0.1326 -0.1299
vn -0.5104 -0.1913 -0.8384
vn -0.9853 -0.1063 -0.1337
vn -0.0312 -0.1563 -0.9872
vn -0.9737 -0.1933 -0.1207
vn -0.0691 0.5728 -0.8168
vn 0.0928 0.6148 -0.7832
vn 0.2177 0.4181 -0.8819
vn 0.1748 0.9794 -0.1007
vn 0.5628 0.0225 -0.8263
vn -1.0000 0.0000 -0.0001
vn 0.9662 0.2310 0.1147
vn 0.7310 -0.0094 -0.6823
vn 0.0524 -0.0377 -0.9979
vn -0.0491 -0.3588 -0.9321
vn -0.0992 -0.7272 -0.6792
vn 0.0447 -0.3831 -0.9226
vn 0.0585 -0.0316 -0.9978
vn 0.2735 -0.1883 -0.9432
vn -0.0553 0.0489 0.9973
vn -0.2995 0.7603 -0.5764
vn -0.1323 0.4573 -0.8794
vn 0.4260 0.3557 -0.8319
vn 0.5661 0.3831 -0.7299
vn 0.6348 0.2271 -0.7385
vn 0.9528 -0.2149 0.2144
vn 0.4581 -0.1501 0.8761
vn -0.1659 0.1361 0.9767
vn 0.2650 -0.1385 0.9542
vn -0.1658 0.1360 0.9767
vn -0.1316 0.0863 0.9875
vn -0.1083 0.1115 0.9879
vn -0.0503 0.0956 0.9941
vn -0.2010 -0.2050 0.9579
vn -0.3161 -0.5312 0.7861
vn -0.0999 -0.8119 0.5752
vn -0.5123 -0.4236 0.7471
vn -0.3314 -0.6157 0.7149
vn -0.6672 -0.2616 0.6974
vn -0.5050 -0.4700 0.7239
vn -0.6789 -0.0798 0.7299
vn -0.4311 -0.2296 0.8726
vn 0.4705 0.3663 0.8028
vn 0.1792 0.1126 0.9774
vn 0.1627 0.5008 0.8501
vn -0.3584 0.1482 0.9217
vn -0.3814 0.1504 0.9121
vn 0.3750 0.8600 0.3460
vn -0.2096 0.6711 0.7111
vn -0.2323 0.9252 0.3000
vn -0.1740 0.1468 0.9738
vn -0.1325 0.1496 0.9798
vn -0.0558 0.6637 0.7459
vn -0.1618 0.1621 0.9734
vn -0.0255 0.1189 0.9926
vn -0.7428 -0.2663 0.6143
vn -0.8144 -0.4877 0.3143
vn -0.0224 0.1186 0.9927
vn -0.1618 0.1211 0.9794
vn -0.8094 -0.1093 0.5770
vn -0.1970 0.1213 0.9729
vn -0.7836 -0.0031 0.6212
vn 0.4126 0.5078 0.7562
vn 0.5713 0.6523 0.4982
vn -0.1424 0.1226 0.9822
vn -0.1929 0.1213 0.9737
vn -0.4991 0.0632 0.8642
vn -0.7847 -0.0403 0.6186
vn -0.9782 -0.1848 -0.0951
vn -0.1869 0.8492 -0.4939
vn -0.0068 0.3290 -0.9443
vn 0.2875 0.9549 -0.0741
vn 0.2009 0.9754 -0.0905
vn 0.8456 0.5275 0.0818
vn 0.9791 0.1533 0.1337
vn 0.9881 0.0475 0.1463
vn 0.9878 -0.0086 0.1557
vn 0.9845 -0.0694 0.1612
vn 0.9860 -0.0601 0.1554
vn 0.8186 -0.5739 0.0238
vn 0.6270 -0.3585 -0.6917
vn 0.8600 -0.4758 0.1846
vn 0.8411 -0.5098 0.1809
vn 0.7417 -0.6452 0.1833
vn 0.6307 -0.7555 0.1774
vn 0.4263 -0.4705 -0.7726
vn 0.3774 -0.4352 -0.8175
vn 0.1885 -0.7975 -0.5731
vn 0.0948 -0.9851 0.1438
vn 0.0751 -0.8606 -0.5038
vn -0.0709 -0.8366 -0.5431
vn -0.6719 -0.7403 0.0220
vn -0.6119 -0.4155 -0.6731
vn -0.7415 -0.5437 -0.3931
vn -0.6323 -0.2814 -0.7218
vn -0.9819 -0.1363 -0.1316
vn -0.9836 -0.1201 -0.1344
vn -0.9800 -0.1570 -0.1225
vn -0.9733 -0.1978 -0.1163
vn -0.9698 -0.2185 -0.1085
vn -0.9711 -0.2079 -0.1175
vn -0.9822 -0.1359 -0.1295
vn -0.6625 0.1046 -0.7418
vn -0.8024 0.3354 -0.4936
vn 0.2294 0.9702 -0.0777
vn 0.3388 0.6878 0.6420
vn 0.7345 0.6775 0.0377
vn 0.9696 0.2200 0.1072
vn 0.9751 0.1966 0.1030
vn 0.2389 -0.1520 -0.9591
vn 0.1271 -0.1260 -0.9839
vn -0.1698 -0.0980 -0.9806
vn -0.0244 -0.0649 -0.9976
vn 0.0122 -0.0634 -0.9979
vn 0.0447 -0.1477 -0.9880
vn 0.0636 -0.0539 -0.9965
vn 0.2084 -0.1083 -0.9720
vn 0.1581 -0.1175 -0.9804
vn 0.0189 -0.1239 -0.9921
vn 0.1335 -0.1328 -0.9821
vn -0.2060 -0.1115 -0.9722
vn 0.2071 -0.3587 -0.9102
vn -0.0016 -0.1240 -0.9923
vn 0.4529 -0.5071 -0.7333
vn 0.1477 -0.1269 -0.9809
vn 0.1744 -0.1628 -0.9711
vn 0.1537 -0.1514 -0.9765
vn 0.1910 -0.1079 -0.9756
vn -0.1790 -0.5411 -0.8217
vn -0.3160 -0.3013 -0.8996
vn 0.3689 -0.1316 -0.9201
vn 0.0717 -0.0256 0.9971
vn 0.4433 -0.2935 -0.8470
vn 0.5603 -0.7130 -0.4215
vn -0.0184 -0.0932 -0.9955
vn 0.1875 -0.5865 -0.7880
vn 0.0717 -0.1202 -0.9902
vn 0.0823 -0.1192 -0.9895
vn 0.1041 -0.1182 -0.9875
vn -0.8922 -0.3457 -0.2905
vn -0.1127 -0.2904 -0.9502
vn 0.3927 -0.1250 -0.9111
vn -0.8981 -0.2544 -0.3587
vn -0.3195 -0.2199 -0.9217
vn 0.1729 -0.1216 -0.9774
vn -0.9154 -0.2122 -0.3421
vn -0.6102 -0.1962 -0.7675
vn 0.1567 -0.1213 -0.9802
vn 0.5098 -0.1155 -0.8525
vn 0.7759 0.1113 0.6210
vn 0.7493 -0.6110 0.2553
vn 0.2099 -0.1223 -0.9700
vn 0.3932 0.6075 -0.6901
vn -0.0210 -0.8923 -0.4509
vn 0.3630 0.5039 -0.7838
vn 0.5646 0.3792 -0.7331
vn 0.0255 -0.5673 -0.8231
vn 0.5435 -0.7256 0.4221
vn 0.0442 -0.0963 -0.9944
vn 0.1733 -0.1406 -0.9748
vn 0.2205 -0.1344 -0.9661
vn 0.1771 -0.1401 -0.9742
vn 0.2406 -0.1317 -0.9616
vn 0.4330 -0.0723 -0.8985
vn 0.1966 -0.1551 -0.9681
vn 0.0030 -0.6081 -0.7939
vn 0.0015 -0.9229 -0.3851
vn 0.0038 -0.0970 -0.9953
vn -0.0551 0.1147 -0.9919
vn -0.6566 0.6830 -0.3202
vn 0.2849 -0.1535 -0.9462
vn -0.5529 -0.8328 0.0249
vn -0.5253 -0.1063 0.8443
vn 0.3103 -0.9335 0.1794
vn -0.0448 -0.7638 0.6439
vn -0.0254 -0.5074 0.8613
vn -0.6494 -0.4829 0.5874
vn -0.7008 -0.7122 -0.0410
vn -0.3229 -0.1799 0.9292
vn -0.4241 -0.0618 0.9035
vn -0.9871 -0.1252 -0.1000
vn -0.0967 0.1295 0.9869
vn -0.9794 -0.1319 -0.1528
vn -0.9486 0.2629 -0.1760
vn -0.6937 0.7015 -0.1634
vn -0.6043 0.7804 -0.1604
vn -0.4232 0.8886 -0.1769
vn -0.4014 0.9008 -0.1655
vn -0.4167 0.8923 -0.1735
vn -0.3944 0.9046 -0.1619
vn 0.0822 0.6957 0.7137
vn 0.3834 0.9194 -0.0880
vn 0.1359 0.7321 0.6675
vn 0.2614 0.5185 0.8141
vn 0.6939 0.7201 -0.0027
vn 0.4940 0.6782 0.5440
vn 0.9823 0.1347 0.1300
vn 0.9841 0.1186 0.1324
vn 0.5118 0.1903 0.8377
vn 0.0228 0.1527 0.9880
vn 0.9767 0.1843 0.1096
vn 0.0691 -0.5709 0.8181
vn -0.0946 -0.6287 0.7718
vn -0.2273 -0.4091 0.8837
vn -0.2085 -0.9751 0.0755
vn -0.5582 -0.0227 0.8294
vn 0.8104 -0.1291 -0.5715
vn -0.9689 -0.2273 -0.0981
vn -0.7159 0.0126 0.6981
vn -0.1811 0.1083 0.9775
vn -0.1046 0.1949 -0.9752
vn -0.4164 -0.4338 0.7991
vn -0.1379 0.1548 0.9783
vn -0.3147 -0.5253 0.7905
vn -0.4022 -0.4425 0.8015
vn -0.2523 0.1551 0.9551
vn -0.4449 0.3518 -0.8236
vn -0.7486 0.1903 0.6352
vn -0.0849 0.1135 0.9899
vn -0.1323 0.0764 0.9883
vn -0.0307 0.1036 0.9941
vn -0.1968 0.1181 0.9733
vn -0.2450 0.1311 0.9606
vn -0.2242 0.1317 0.9656
vn -0.1333 0.1328 0.9821
vn -0.1173 0.1333 0.9841
vn -0.1237 0.1334 0.9833
vn -0.0725 0.1244 0.9896
vn -0.4243 0.8688 0.2553
vn -0.3596 0.6478 0.6716
vn -0.1388 0.1090 0.9843
vn -0.1304 0.1607 0.9784
vn 0.1802 0.5662 0.8043
vn 0.3452 0.5733 0.7431
vn -0.1460 0.1257 0.9813
vn -0.3534 0.2549 0.9001
vn -0.1022 0.1464 0.9839
vn 0.2389 0.1630 0.9573
usemtl Default_OBJ
s 1
f 2//1 1//2 4//3
f 4//3 1//2 5//4
f 5//4 1//2 6//2
f 7//5 6//2 8//2
f 7//5 8//2 9//6
f 9//6 10//7 11//8
f 11//8 10//7 12//9
f 12//9 10//7 13//10
f 12//9 13//10 14//11
f 14//11 13//10 15//12
f 14//11 15//12 16//13
f 16//13 15//12 17//14
f 16//13 17//14 18//15
f 20//2 19//2 22//2
f 23//16 3//2 2//2
f 23//16 2//2 24//17
f 27//18 29//2 30//19
f 30//2 31//20 18//15
f 30//2 18//15 32//2
f 32//2 17//21 33//22
f 32//2 33//22 34//2
f 35//2 33//22 36//23
f 37//2 36//23 38//24
f 39//25 38//2 40//26
f 40//26 38//2 41//2
f 44//2 43//27 45//28
f 30//19 47//29 48//30
f 48//30 27//18 30//19
f 24//17 49//31 50//32
f 50//32 23//16 24//17
f 23//33 52//33 20//33
f 20//34 53//35 21//36
f 54//37 21//36 53//35
f 21//36 54//37 19//37
f 56//38 22//39 55//40
f 22//39 56//38 3//41
f 57//42 3//41 56//38
f 6//43 57//44 58//45
f 59//46 10//7 8//47
f 10//7 59//46 60//48
f 60//48 13//10 10//7
f 13//10 60//48 61//49
f 61//49 15//12 13//10
f 62//50 17//14 15//12
f 17//21 64//51 33//22
f 64//51 17//21 63//52
f 33//22 65//53 36//23
f 65//53 33//22 64//51
f 36//23 66//54 38//24
f 66//54 36//23 65//53
f 67//55 38//24 66//54
f 41//56 68//57 43//27
f 43//27 69//58 45//28
f 69//58 43//27 68//57
f 45//59 70//60 46//61
f 71//62 46//61 70//60
f 72//63 40//63 42//63
f 74//64 40//26 73//65
f 40//26 74//64 39//25
f 76//66 37//66 75//66
f 77//67 35//67 76//67
f 54//68 52//68 55//68
f 55//40 51//68 56//38
f 56//38 51//68 78//68
f 81//69 49//68 82//70
f 82//70 48//68 83//71
f 84//68 48//30 47//29
f 63//52 47//68 64//51
f 64//51 76//68 65//53
f 69//68 71//62 70//60
f 57//44 85//72 86//73
f 57//44 86//73 58//45
f 58//45 86//73 87//74
f 58//45 87//74 59//68
f 59//46 88//68 60//48
f 60//48 90//68 61//49
f 62//68 91//75 92//76
f 63//68 92//76 84//77
f 46//78 45//68 44//79
f 44//79 43//68 42//80
f 43//68 41//68 42//80
f 42//80 41//68 40//68
f 39//81 38//68 37//82
f 37//83 36//68 35//84
f 35//85 33//68 34//86
f 17//68 18//87 32//68
f 31//88 29//89 30//68
f 29//89 28//90 27//91
f 28//90 26//92 27//91
f 27//91 26//92 24//93
f 26//92 25//94 24//93
f 25//94 2//95 24//93
f 3//68 22//68 23//68
f 23//68 22//68 20//68
f 21//68 20//68 19//68
f 10//68 8//68 9//68
f 7//96 6//68 5//97
f 3//98 2//68 1//99
f 32//100 30//101 47//102
f 49//103 48//104 27//91
f 27//91 24//93 49//103
f 51//105 50//106 23//107
f 51//105 23//107 52//108
f 52//109 20//110 53//111
f 22//112 55//112 19//112
f 54//112 19//112 55//112
f 1//99 57//113 3//98
f 1//99 6//114 57//113
f 59//115 58//115 8//115
f 6//115 8//115 58//115
f 62//116 61//117 15//118
f 63//119 62//120 17//121
f 41//122 67//123 38//124
f 67//123 41//122 68//125
f 69//126 45//126 70//126
f 44//79 71//127 46//78
f 72//128 71//127 42//80
f 44//79 42//80 71//127
f 73//129 72//128 40//130
f 37//82 75//131 39//81
f 74//132 39//81 75//131
f 35//84 76//133 37//83
f 34//86 77//134 35//85
f 32//100 47//102 34//86
f 77//134 34//86 47//102
f 63//119 92//2 62//120
f 62//116 91//135 61//117
f 91//135 90//136 61//117
f 90//136 89//137 60//2
f 89//137 88//138 60//2
f 88//138 87//139 59//2
f 85//140 78//141 57//2
f 56//2 57//2 78//141
f 69//2 71//127 68//125
f 71//127 72//128 68//125
f 68//125 72//128 67//123
f 72//128 73//129 67//123
f 67//123 73//129 66//2
f 73//129 74//132 66//2
f 74//132 75//131 66//2
f 66//2 75//131 65//2
f 75//131 76//2 65//2
f 76//2 77//134 64//2
f 77//134 47//102 64//2
f 63//2 47//2 84//2
f 84//142 48//2 83//143
f 48//104 49//103 82//2
f 81//144 49//2 80//145
f 49//2 50//106 80//145
f 80//145 50//106 79//146
f 79//146 50//106 78//141
f 50//106 51//105 78//141
f 51//105 52//108 55//2
f 53//111 54//2 52//109
f 94//147 96//148 93//149
f 96//148 97//150 93//149
f 97//150 98//151 93//149
f 99//152 100//153 98//154
f 99//152 101//155 100//153
f 101//155 103//156 102//157
f 103//156 104//158 102//157
f 104//158 105//159 102//157
f 104//158 106//160 105//159
f 106//160 107//161 105//159
f 106//160 108//162 107//161
f 108//162 109//163 107//161
f 108//162 110//164 109//163
f 112//165 114//165 111//165
f 115//166 94//167 95//168
f 115//166 116//169 94//167
f 119//170 122//171 121//172
f 122//173 110//164 123//174
f 122//173 124//175 110//164
f 124//176 125//177 109//178
f 124//176 126//179 125//177
f 127//180 128//181 125//177
f 129//182 130//183 128//181
f 131//184 132//185 130//186
f 132//185 133//187 130//186
f 136//188 137//189 135//190
f 122//171 140//191 139//192
f 140//191 122//171 119//170
f 116//169 142//193 141//194
f 142//193 116//169 115//166
f 115//195 112//195 144//195
f 112//196 113//197 145//198
f 146//199 145//198 113//197
f 113//197 111//200 146//199
f 148//201 147//202 114//203
f 114//203 95//204 148//201
f 149//205 148//201 95//204
f 98//206 150//207 149//208
f 151//209 100//210 102//157
f 102//157 152//211 151//209
f 152//211 102//157 105//159
f 105//159 153//212 152//211
f 153//212 105//159 107//161
f 154//213 107//161 109//163
f 109//178 125//177 156//214
f 156//214 155//215 109//178
f 125//177 128//181 157//216
f 157//216 156//214 125//177
f 128//181 130//183 158//217
f 158//217 157//216 128//181
f 159//218 158//217 130//183
f 133//219 135//190 160//220
f 135//190 137//189 161//221
f 161//221 160//220 135//190
f 137//222 138//223 162//224
f 163//225 162//224 138//223
f 164//226 134//226 132//226
f 166//227 165//228 132//185
f 132//185 131//184 166//227
f 168//229 167//229 129//229
f 169//230 168//230 127//230
f 146//231 147//231 144//231
f 147//202 148//201 143//232
f 148//201 170//233 143//232
f 173//234 174//235 141//236
f 174//235 175//237 140//238
f 176//239 139//192 140//191
f 155//215 156//214 139//240
f 156//214 157//216 168//241
f 161//242 162//224 163//225
f 149//208 178//243 177//244
f 149//208 150//207 178//243
f 150//207 179//245 178//243
f 150//207 151//246 179//245
f 151//209 152//211 180//247
f 152//211 153//212 182//248
f 154//249 184//250 183//251
f 155//252 176//253 184//250
f 138//254 136//255 137//256
f 136//255 134//257 135//258
f 135//258 134//257 133//259
f 134//257 132//260 133//259
f 131//261 129//262 130//263
f 129//264 127//265 128//266
f 127//267 126//268 125//269
f 109//270 124//270 110//271
f 123//272 122//273 121//274
f 121//274 119//275 120//276
f 120//276 119//275 118//277
f 119//275 116//278 118//277
f 118//277 116//278 117//279
f 117//279 116//278 94//280
f 95//281 115//282 114//283
f 115//282 112//284 114//283
f 113//285 111//285 112//285
f 102//286 101//286 100//286
f 99//287 97//288 98//289
f 95//290 93//291 94//292
f 124//293 139//294 122//295
f 141//296 119//275 140//297
f 119//275 141//296 116//278
f 143//298 115//299 142//300
f 143//298 144//301 115//299
f 144//302 145//303 112//304
f 114//305 111//305 147//305
f 146//305 147//305 111//305
f 93//291 95//290 149//306
f 93//291 149//306 98//307
f 151//308 100//309 150//310
f 98//311 150//310 100//309
f 154//312 107//313 153//314
f 155//315 109//316 154//317
f 133//318 130//319 159//320
f 159//320 160//321 133//318
f 161//322 162//322 137//322
f 136//255 138//254 163//323
f 164//324 134//257 163//323
f 136//255 163//323 134//257
f 165//325 132//326 164//324
f 129//262 131//261 167//327
f 166//328 167//327 131//261
f 127//265 129//264 168//329
f 126//268 127//267 169//330
f 124//293 126//268 139//294
f 169//330 139//294 126//268
f 155//315 154//317 184//331
f 154//312 153//314 183//332
f 183//332 153//314 182//333
f 182//333 152//334 181//335
f 181//335 152//334 180//336
f 180//336 151//337 179//338
f 177//339 149//340 170//341
f 148//342 170//341 149//340
f 161//343 160//321 163//323
f 163//323 160//321 164//324
f 160//321 159//320 164//324
f 164//324 159//320 165//325
f 159//320 158//344 165//325
f 165//325 158//344 166//328
f 166//328 158//344 167//327
f 158//344 157//345 167//327
f 167//327 157//345 168//346
f 168//347 156//348 169//330
f 169//330 156//348 139//294
f 155//349 176//349 139//349
f 176//350 175//351 140//352
f 140//297 174//353 141//296
f 173//354 172//355 141//356
f 141//356 172//355 142//300
f 172//355 171//357 142//300
f 171//357 170//341 142//300
f 142//300 170//341 143//298
f 143//298 147//358 144//301
f 145//303 144//302 146//359
f 2//1 4//3 96//148 94//147
f 4//3 5//4 97//150 96//148
f 7//5 9//6 101//155 99//152
f 9//6 11//8 103//156 101//155
f 11//8 12//9 104//158 103//156
f 12//9 14//11 106//160 104//158
f 14//11 16//13 108//162 106//160
f 16//13 18//15 110//164 108//162
f 18//15 31//20 123//174 110//164
f 81//69 82//70 174//235 173//234
f 82//70 83//71 175//237 174//235
f 86//73 85//72 177//244 178//243
f 87//74 86//73 178//243 179//245
f 92//76 91//75 183//251 184//250
f 84//77 92//76 184//250 176//253
f 29//89 31//88 123//272 121//274
f 28//90 29//89 121//274 120//276
f 26//92 28//90 120//276 118//277
f 25//94 26//92 118//277 117//279
f 2//95 25//94 117//279 94//280
f 7//96 5//97 97//288 99//287
f 90//136 91//135 183//332 182//333
f 89//137 90//136 182//333 181//335
f 88//138 89//137 181//335 180//336
f 87//139 88//138 180//336 179//338
f 78//141 85//140 177//339 170//341
f 84//142 83//143 175//351 176//350
f 81//144 80//145 172//355 173//354
f 80//145 79//146 171//357 172//355
f 79//146 78//141 170//341 171//357
